<svg width="960" height="625" viewBox="0 0 960 625" fill="none" xmlns="http://www.w3.org/2000/svg">
<g clip-path="url(#clip0_285_5724)">
<rect x="611" y="316" width="164" height="164" fill="#B2BEB5"/>
<rect x="363" y="165" width="164" height="164" fill="#E5E4E2"/>
<rect x="883" y="499" width="164" height="164" fill="#E5E4E2"/>
<rect x="259" y="392" width="164" height="164" fill="#B2BEB5"/>
<rect x="242" y="247" width="95" height="95" fill="#C0C0C0"/>
<rect x="485" y="474" width="95" height="95" fill="#E5E4E2"/>
<rect x="905" y="196" width="95" height="95" fill="#E5E4E2"/>
<rect y="134" width="95" height="95" fill="#E5E4E2"/>
<rect x="552" y="165" width="95" height="95" fill="#B2BEB5"/>
<rect x="727" y="616" width="95" height="95" fill="#B2BEB5"/>
<rect x="106" y="345" width="113" height="113" fill="#E5E4E2"/>
<rect x="732" y="152" width="95" height="95" fill="#E5E4E2"/>
<rect x="631" y="499" width="70" height="70" fill="#C0C0C0"/>
<rect x="117" y="221" width="70" height="70" fill="#B2BEB5"/>
<rect x="242" y="127" width="70" height="70" fill="#E5E4E2"/>
<rect x="930" y="328" width="70" height="70" fill="#C0C0C0"/>
<rect x="552" y="64" width="70" height="70" fill="#E5E4E2"/>
<rect x="803" y="348" width="70" height="70" fill="#C0C0C0"/>
<rect x="845" y="45" width="108" height="108" fill="#C0C0C0"/>
<rect x="751" y="511" width="70" height="70" fill="#C0C0C0"/>
<rect x="463" y="360" width="70" height="70" fill="#C0C0C0"/>
</g>
<defs>
<clipPath id="clip0_285_5724">
<rect width="960" height="625" fill="white"/>
</clipPath>
</defs>
</svg>
